<svg width="98" height="819" viewBox="0 0 98 819" fill="none" xmlns="http://www.w3.org/2000/svg">
<path fill-rule="evenodd" clip-rule="evenodd" d="M132.994 3.09185C133.002 2.56686 133.002 2.03381 132.994 1.50883C132.643 1.50075 132.292 1.49267 131.941 1.4846C96.5157 0.927309 67.3478 28.9048 66.7848 63.9654C66.7848 64.1027 66.7848 64.2481 66.7848 64.3854C66.7195 29.3651 38.0249 1 2.63993 1C2.1096 1 1.57112 0.999997 1.04079 1.01615C1.04079 1.36345 1.03263 1.71074 1.03263 2.05804C1.03263 36.3353 28.4708 64.2481 62.787 65.5C28.4545 66.7357 1 94.6566 1 128.942C1 129.289 0.999999 129.637 1.00816 129.984C1.53848 130 2.06881 130 2.60729 130C37.9922 130 66.6869 101.635 66.7522 66.6146C66.7522 66.7519 66.7522 66.8973 66.7522 67.0346C67.3151 102.103 96.4912 130.073 131.909 129.515C132.26 129.515 132.61 129.499 132.961 129.491C132.961 128.966 132.961 128.441 132.961 127.908C132.415 94.1397 105.344 66.9619 71.7046 65.4919C105.36 64.0381 132.447 36.8522 132.994 3.07569V3.09185ZM66.7848 65.4677C66.7848 65.4677 66.7848 65.4515 66.7848 65.4435C66.7848 65.4515 66.7848 65.4596 66.7848 65.4677ZM66.7522 65.5485C66.7522 65.5485 66.7522 65.5646 66.7522 65.5727C66.7522 65.5646 66.7522 65.5565 66.7522 65.5485Z" stroke="#E52D2D" stroke-width="2" stroke-miterlimit="10"/>
<path fill-rule="evenodd" clip-rule="evenodd" d="M132.994 278.092C133.002 277.567 133.002 277.034 132.994 276.509C132.643 276.501 132.292 276.493 131.941 276.485C96.5157 275.927 67.3478 303.905 66.7848 338.965C66.7848 339.103 66.7848 339.248 66.7848 339.385C66.7195 304.365 38.0249 276 2.63993 276C2.1096 276 1.57112 276 1.04079 276.016C1.04079 276.363 1.03263 276.711 1.03263 277.058C1.03263 311.335 28.4708 339.248 62.787 340.5C28.4545 341.736 1 369.657 1 403.942C1 404.289 0.999999 404.637 1.00816 404.984C1.53848 405 2.06881 405 2.60729 405C37.9922 405 66.6869 376.635 66.7522 341.615C66.7522 341.752 66.7522 341.897 66.7522 342.035C67.3151 377.103 96.4912 405.073 131.909 404.515C132.26 404.515 132.61 404.499 132.961 404.491C132.961 403.966 132.961 403.441 132.961 402.908C132.415 369.14 105.344 341.962 71.7046 340.492C105.36 339.038 132.447 311.852 132.994 278.076V278.092ZM66.7848 340.468C66.7848 340.468 66.7848 340.452 66.7848 340.443C66.7848 340.452 66.7848 340.46 66.7848 340.468ZM66.7522 340.548C66.7522 340.548 66.7522 340.565 66.7522 340.573C66.7522 340.565 66.7522 340.557 66.7522 340.548Z" stroke="#E52D2D" stroke-width="2" stroke-miterlimit="10"/>
<path fill-rule="evenodd" clip-rule="evenodd" d="M132.994 553.092C133.002 552.567 133.002 552.034 132.994 551.509C132.643 551.501 132.292 551.493 131.941 551.485C96.5157 550.927 67.3478 578.905 66.7848 613.965C66.7848 614.103 66.7848 614.248 66.7848 614.385C66.7195 579.365 38.0249 551 2.63993 551C2.1096 551 1.57112 551 1.04079 551.016C1.04079 551.363 1.03263 551.711 1.03263 552.058C1.03263 586.335 28.4708 614.248 62.787 615.5C28.4545 616.736 1 644.657 1 678.942C1 679.289 0.999999 679.637 1.00816 679.984C1.53848 680 2.06881 680 2.60729 680C37.9922 680 66.6869 651.635 66.7522 616.615C66.7522 616.752 66.7522 616.897 66.7522 617.035C67.3151 652.103 96.4912 680.073 131.909 679.515C132.26 679.515 132.61 679.499 132.961 679.491C132.961 678.966 132.961 678.441 132.961 677.908C132.415 644.14 105.344 616.962 71.7046 615.492C105.36 614.038 132.447 586.852 132.994 553.076V553.092ZM66.7848 615.468C66.7848 615.468 66.7848 615.452 66.7848 615.443C66.7848 615.452 66.7848 615.46 66.7848 615.468ZM66.7522 615.548C66.7522 615.548 66.7522 615.565 66.7522 615.573C66.7522 615.565 66.7522 615.557 66.7522 615.548Z" stroke="#E52D2D" stroke-width="2" stroke-miterlimit="10"/>
<path d="M66.7521 268C102.088 268 130.734 239.355 130.734 204.019C130.734 168.683 102.088 140.037 66.7521 140.037C31.4161 140.037 2.77051 168.683 2.77051 204.019C2.77051 239.355 31.4161 268 66.7521 268Z" stroke="#E52D2D" stroke-width="2" stroke-miterlimit="10"/>
<path fill-rule="evenodd" clip-rule="evenodd" d="M130.725 204.718C95.189 204.425 66.4428 175.63 66.1663 140.045H66.1338C65.8654 175.232 37.7617 203.759 2.77832 204.694V204.816C37.2656 205.735 65.0441 233.481 66.085 267.984H66.1988C67.2479 233.082 95.685 205.068 130.725 204.783V204.726V204.718Z" stroke="#E52D2D" stroke-width="2" stroke-miterlimit="10"/>
<path d="M66.7521 543C102.088 543 130.734 514.355 130.734 479.019C130.734 443.683 102.088 415.037 66.7521 415.037C31.4161 415.037 2.77051 443.683 2.77051 479.019C2.77051 514.355 31.4161 543 66.7521 543Z" stroke="#E52D2D" stroke-width="2" stroke-miterlimit="10"/>
<path fill-rule="evenodd" clip-rule="evenodd" d="M130.725 479.718C95.189 479.425 66.4428 450.63 66.1663 415.045H66.1338C65.8654 450.232 37.7617 478.758 2.77832 479.694V479.816C37.2656 480.734 65.0441 508.48 66.085 542.984H66.1988C67.2479 508.082 95.685 480.068 130.725 479.783V479.726V479.718Z" stroke="#E52D2D" stroke-width="2" stroke-miterlimit="10"/>
<path d="M66.7521 818C102.088 818 130.734 789.355 130.734 754.019C130.734 718.683 102.088 690.037 66.7521 690.037C31.4161 690.037 2.77051 718.683 2.77051 754.019C2.77051 789.355 31.4161 818 66.7521 818Z" stroke="#E52D2D" stroke-width="2" stroke-miterlimit="10"/>
<path fill-rule="evenodd" clip-rule="evenodd" d="M130.725 754.718C95.189 754.425 66.4428 725.63 66.1663 690.045H66.1338C65.8654 725.232 37.7617 753.758 2.77832 754.694V754.816C37.2656 755.734 65.0441 783.48 66.085 817.984H66.1988C67.2479 783.082 95.685 755.068 130.725 754.783V754.726V754.718Z" stroke="#E52D2D" stroke-width="2" stroke-miterlimit="10"/>
</svg>
