<svg width="35" height="35" viewBox="0 0 35 35" fill="none" xmlns="http://www.w3.org/2000/svg">
<circle cx="17.5" cy="17.5" r="17.0732" stroke="#335243" style="stroke:#335243;stroke:color(display-p3 0.2000 0.3216 0.2627);stroke-opacity:1;" stroke-width="0.853659"/>
<path d="M11.9874 11.0009C11.9871 11.5313 11.7768 12.0399 11.4028 12.4147C11.0287 12.7896 10.5215 13 9.99271 12.9998C9.46394 12.9995 8.95694 12.7886 8.58324 12.4133C8.20953 12.0381 7.99974 11.5293 8 10.9989C8.00026 10.4685 8.21057 9.95991 8.58465 9.58505C8.95873 9.21018 9.46594 8.99974 9.9947 9C10.5235 9.00027 11.0305 9.21122 11.4042 9.58646C11.7779 9.9617 11.9877 10.4705 11.9874 11.0009ZM12.0472 14.4807H8.05981V27H12.0472V14.4807ZM18.3473 14.4807H14.3799V27H18.3075V20.4304C18.3075 16.7706 23.0624 16.4306 23.0624 20.4304V27H27V19.0704C27 12.9008 19.9622 13.1308 18.3075 16.1606L18.3473 14.4807Z" fill="#335243" style="fill:#335243;fill:color(display-p3 0.2000 0.3216 0.2627);fill-opacity:1;"/>
</svg>
